<?xml version="1.0" standalone="no"?>
<!DOCTYPE svg PUBLIC "-//W3C//DTD SVG 20010904//EN"
 "http://www.w3.org/TR/2001/REC-SVG-20010904/DTD/svg10.dtd">
<svg version="1.0" xmlns="http://www.w3.org/2000/svg"
 width="648.000000pt" height="747.000000pt" viewBox="0 0 648.000000 747.000000"
 preserveAspectRatio="xMidYMid meet">

<g transform="translate(0.000000,747.000000) scale(0.100000,-0.100000)"
fill="#000000" stroke="none">
<path d="M40 6195 l0 -785 903 0 c496 0 907 -4 913 -8 10 -6 134 -374 134
-396 0 -3 -321 -6 -712 -6 l-713 0 -3 -75 -3 -75 -274 0 -275 0 0 -60 0 -60
33 0 c17 -1 141 0 275 0 l242 1 0 -76 0 -75 28 0 c15 0 367 -1 782 -3 l755 -2
36 -105 c20 -58 39 -117 43 -132 l6 -28 -825 0 -825 0 0 -75 0 -75 -270 0
-270 0 0 -60 0 -60 270 0 270 0 0 -70 0 -70 892 -2 892 -3 37 -115 c20 -63 39
-125 43 -137 l7 -23 -935 0 -936 0 0 -80 0 -80 -275 0 -275 0 0 -65 0 -65 275
0 274 0 3 -65 3 -65 1000 -3 1000 -2 42 -125 c22 -69 42 -131 42 -137 1 -10
-214 -13 -1044 -13 l-1045 0 0 -65 0 -65 -275 0 -275 0 0 -65 0 -65 275 0 275
0 0 -80 0 -80 1115 0 c613 0 1115 -1 1115 -3 0 -2 22 -75 50 -162 27 -87 50
-160 50 -162 0 -2 -648 -3 -1440 -3 l-1440 0 0 -730 0 -730 1710 0 1710 0 -4
34 c-2 19 -120 398 -261 843 -142 444 -268 842 -280 883 -35 114 -450 1420
-489 1540 -80 239 -436 1370 -436 1383 0 7 -58 189 -129 403 -70 214 -184 565
-252 781 -122 388 -123 391 -152 397 -16 3 -335 6 -708 6 l-679 0 0 -785z"/>
<path d="M1782 6972 c-81 -3 -84 -4 -78 -25 8 -32 2037 -6251 2041 -6255 1 -1
110 51 241 117 541 271 931 544 1146 801 460 549 738 1123 809 1670 14 109 18
720 6 905 -17 259 -77 564 -145 735 -49 124 -204 436 -287 580 -159 275 -312
478 -485 644 -177 168 -330 269 -592 389 -535 245 -1095 403 -1553 437 -121 9
-860 11 -1103 2z"/>
</g>
</svg>
